<?xml version="1.0" encoding="UTF-8" standalone="no"?>
<svg width="90px" height="24px" viewBox="0 0 90 24" version="1.1" xmlns="http://www.w3.org/2000/svg" xmlns:xlink="http://www.w3.org/1999/xlink">
    <!-- Generator: sketchtool 39.1 (31720) - http://www.bohemiancoding.com/sketch -->
    <title>1C11CF2E-4346-4BC7-B591-28A0EB73C49A</title>
    <desc>Created with sketchtool.</desc>
    <defs></defs>
    <g id="Coming-Soon" stroke="none" stroke-width="1" fill="none" fill-rule="evenodd">
        <g id="gojuno.com/start_desktop" transform="translate(-675.000000, -28.000000)" fill="#0F375A">
            <g id="Top-nav">
                <g id="logo_desktop" transform="translate(675.000000, 28.000000)">
                    <g id="Logo">
                        <path d="M77.4322278,2.68619779 L80.087358,2.68619779 C84.0728675,2.68619779 87.3153483,5.93062284 87.3153483,9.91852213 L87.3153483,13.1058876 C87.3153483,17.0937869 84.0728675,20.3381057 80.087358,20.3381057 L77.4322278,20.3381057 C73.4467183,20.3381057 70.2043437,17.0937869 70.2043437,13.1058876 L70.2043437,9.91852213 C70.2043437,5.93062284 73.4467183,2.68619779 77.4322278,2.68619779 M80.087358,4.25024571e-05 L77.4322278,4.25024571e-05 C71.9663953,4.25024571e-05 67.519692,4.44951847 67.519692,9.91852213 L67.519692,13.1058876 C67.519692,18.5748913 71.9663953,23.024261 77.4322278,23.024261 L80.087358,23.024261 C85.5531905,23.024261 90,18.5748913 90,13.1058876 L90,9.91852213 C90,4.44951847 85.5531905,4.25024571e-05 80.087358,4.25024571e-05 Z M53.5442378,1.06256145e-05 L42.539194,1.06256145e-05 L42.539194,23.0243354 L45.2238457,23.0243354 L45.2238457,2.74471304 L53.5442378,2.74471304 C58.0172769,2.74471304 60.1917801,4.90330658 60.1917801,9.34375078 L60.1917801,23.0243354 L62.8764318,23.0243354 L62.8764318,9.34375078 C62.8764318,6.36964135 62.0595993,4.0439069 60.4487658,2.43093865 C58.8378261,0.817864155 56.5147597,1.06256145e-05 53.5442378,1.06256145e-05 Z M34.5349422,20.2795692 L26.2145501,20.2795692 C21.741511,20.2795692 19.567114,18.1210819 19.567114,13.6806377 L19.567114,5.31280718e-05 L16.8825685,5.31280718e-05 L16.8825685,13.6806377 C16.8825685,16.6546409 17.6992948,18.9803754 19.3101283,20.5933436 C20.921068,22.2064181 23.2440282,23.0242716 26.2145501,23.0242716 L37.219594,23.0242716 L37.219594,5.31280718e-05 L34.5349422,5.31280718e-05 L34.5349422,20.2795692 Z M9.03156309,13.6806909 C9.03156309,18.1210288 6.85727233,20.2796223 2.38433945,20.2796223 L0,20.2796223 L0,23.0243248 L2.38433945,23.0243248 C5.35475513,23.0243248 7.67771533,22.206365 9.28865505,20.5933967 C10.8993824,18.9804285 11.7162148,16.6545878 11.7162148,13.6806909 L11.7162148,-3.55271368e-15 L9.03156309,-3.55271368e-15 L9.03156309,13.6806909 Z"></path>
                    </g>
                </g>
            </g>
        </g>
    </g>
</svg>